<?xml version="1.0" standalone="no"?><!DOCTYPE svg PUBLIC "-//W3C//DTD SVG 1.1//EN" "http://www.w3.org/Graphics/SVG/1.1/DTD/svg11.dtd"><svg xmlns:xlink="http://www.w3.org/1999/xlink" version="1.1" class="highcharts-root" style="font-family:&quot;Lucida Grande&quot;, &quot;Lucida Sans Unicode&quot;, Arial, Helvetica, sans-serif;font-size:12px;" xmlns="http://www.w3.org/2000/svg" width="600" height="400" viewBox="0 0 600 400"><desc>Created with Highcharts 6.1.0</desc><defs><clipPath id="highcharts-1wg03em-28"><rect x="0" y="0" width="495" height="260" fill="none"></rect></clipPath></defs><rect fill="#ffffff" class="highcharts-background" x="0" y="0" width="600" height="400" rx="0" ry="0"></rect><rect fill="none" class="highcharts-plot-background" x="95" y="49" width="495" height="260"></rect><g class="highcharts-grid highcharts-xaxis-grid "><path fill="none" class="highcharts-grid-line" d="M 116.5 49 L 116.5 309" opacity="1"></path><path fill="none" class="highcharts-grid-line" d="M 137.5 49 L 137.5 309" opacity="1"></path><path fill="none" class="highcharts-grid-line" d="M 159.5 49 L 159.5 309" opacity="1"></path><path fill="none" class="highcharts-grid-line" d="M 180.5 49 L 180.5 309" opacity="1"></path><path fill="none" class="highcharts-grid-line" d="M 202.5 49 L 202.5 309" opacity="1"></path><path fill="none" class="highcharts-grid-line" d="M 223.5 49 L 223.5 309" opacity="1"></path><path fill="none" class="highcharts-grid-line" d="M 245.5 49 L 245.5 309" opacity="1"></path><path fill="none" class="highcharts-grid-line" d="M 266.5 49 L 266.5 309" opacity="1"></path><path fill="none" class="highcharts-grid-line" d="M 288.5 49 L 288.5 309" opacity="1"></path><path fill="none" class="highcharts-grid-line" d="M 309.5 49 L 309.5 309" opacity="1"></path><path fill="none" class="highcharts-grid-line" d="M 331.5 49 L 331.5 309" opacity="1"></path><path fill="none" class="highcharts-grid-line" d="M 352.5 49 L 352.5 309" opacity="1"></path><path fill="none" class="highcharts-grid-line" d="M 374.5 49 L 374.5 309" opacity="1"></path><path fill="none" class="highcharts-grid-line" d="M 395.5 49 L 395.5 309" opacity="1"></path><path fill="none" class="highcharts-grid-line" d="M 417.5 49 L 417.5 309" opacity="1"></path><path fill="none" class="highcharts-grid-line" d="M 438.5 49 L 438.5 309" opacity="1"></path><path fill="none" class="highcharts-grid-line" d="M 460.5 49 L 460.5 309" opacity="1"></path><path fill="none" class="highcharts-grid-line" d="M 481.5 49 L 481.5 309" opacity="1"></path><path fill="none" class="highcharts-grid-line" d="M 503.5 49 L 503.5 309" opacity="1"></path><path fill="none" class="highcharts-grid-line" d="M 524.5 49 L 524.5 309" opacity="1"></path><path fill="none" class="highcharts-grid-line" d="M 546.5 49 L 546.5 309" opacity="1"></path><path fill="none" class="highcharts-grid-line" d="M 567.5 49 L 567.5 309" opacity="1"></path><path fill="none" class="highcharts-grid-line" d="M 589.5 49 L 589.5 309" opacity="1"></path><path fill="none" class="highcharts-grid-line" d="M 94.5 49 L 94.5 309" opacity="1"></path></g><g class="highcharts-grid highcharts-yaxis-grid "><path fill="none" stroke="#e6e6e6" stroke-width="1" class="highcharts-grid-line" d="M 95 309.5 L 590 309.5" opacity="1"></path><path fill="none" stroke="#e6e6e6" stroke-width="1" class="highcharts-grid-line" d="M 95 257.5 L 590 257.5" opacity="1"></path><path fill="none" stroke="#e6e6e6" stroke-width="1" class="highcharts-grid-line" d="M 95 205.5 L 590 205.5" opacity="1"></path><path fill="none" stroke="#e6e6e6" stroke-width="1" class="highcharts-grid-line" d="M 95 153.5 L 590 153.5" opacity="1"></path><path fill="none" stroke="#e6e6e6" stroke-width="1" class="highcharts-grid-line" d="M 95 101.5 L 590 101.5" opacity="1"></path><path fill="none" stroke="#e6e6e6" stroke-width="1" class="highcharts-grid-line" d="M 95 48.5 L 590 48.5" opacity="1"></path></g><rect fill="none" class="highcharts-plot-border" x="95" y="49" width="495" height="260"></rect><g class="highcharts-axis highcharts-xaxis "><path fill="none" class="highcharts-tick" stroke="#ccd6eb" stroke-width="1" d="M 116.5 309 L 116.5 319" opacity="1"></path><path fill="none" class="highcharts-tick" stroke="#ccd6eb" stroke-width="1" d="M 137.5 309 L 137.5 319" opacity="1"></path><path fill="none" class="highcharts-tick" stroke="#ccd6eb" stroke-width="1" d="M 159.5 309 L 159.5 319" opacity="1"></path><path fill="none" class="highcharts-tick" stroke="#ccd6eb" stroke-width="1" d="M 180.5 309 L 180.5 319" opacity="1"></path><path fill="none" class="highcharts-tick" stroke="#ccd6eb" stroke-width="1" d="M 202.5 309 L 202.5 319" opacity="1"></path><path fill="none" class="highcharts-tick" stroke="#ccd6eb" stroke-width="1" d="M 223.5 309 L 223.5 319" opacity="1"></path><path fill="none" class="highcharts-tick" stroke="#ccd6eb" stroke-width="1" d="M 245.5 309 L 245.5 319" opacity="1"></path><path fill="none" class="highcharts-tick" stroke="#ccd6eb" stroke-width="1" d="M 266.5 309 L 266.5 319" opacity="1"></path><path fill="none" class="highcharts-tick" stroke="#ccd6eb" stroke-width="1" d="M 288.5 309 L 288.5 319" opacity="1"></path><path fill="none" class="highcharts-tick" stroke="#ccd6eb" stroke-width="1" d="M 309.5 309 L 309.5 319" opacity="1"></path><path fill="none" class="highcharts-tick" stroke="#ccd6eb" stroke-width="1" d="M 331.5 309 L 331.5 319" opacity="1"></path><path fill="none" class="highcharts-tick" stroke="#ccd6eb" stroke-width="1" d="M 352.5 309 L 352.5 319" opacity="1"></path><path fill="none" class="highcharts-tick" stroke="#ccd6eb" stroke-width="1" d="M 374.5 309 L 374.5 319" opacity="1"></path><path fill="none" class="highcharts-tick" stroke="#ccd6eb" stroke-width="1" d="M 395.5 309 L 395.5 319" opacity="1"></path><path fill="none" class="highcharts-tick" stroke="#ccd6eb" stroke-width="1" d="M 417.5 309 L 417.5 319" opacity="1"></path><path fill="none" class="highcharts-tick" stroke="#ccd6eb" stroke-width="1" d="M 438.5 309 L 438.5 319" opacity="1"></path><path fill="none" class="highcharts-tick" stroke="#ccd6eb" stroke-width="1" d="M 460.5 309 L 460.5 319" opacity="1"></path><path fill="none" class="highcharts-tick" stroke="#ccd6eb" stroke-width="1" d="M 481.5 309 L 481.5 319" opacity="1"></path><path fill="none" class="highcharts-tick" stroke="#ccd6eb" stroke-width="1" d="M 503.5 309 L 503.5 319" opacity="1"></path><path fill="none" class="highcharts-tick" stroke="#ccd6eb" stroke-width="1" d="M 524.5 309 L 524.5 319" opacity="1"></path><path fill="none" class="highcharts-tick" stroke="#ccd6eb" stroke-width="1" d="M 546.5 309 L 546.5 319" opacity="1"></path><path fill="none" class="highcharts-tick" stroke="#ccd6eb" stroke-width="1" d="M 567.5 309 L 567.5 319" opacity="1"></path><path fill="none" class="highcharts-tick" stroke="#ccd6eb" stroke-width="1" d="M 590.5 309 L 590.5 319" opacity="1"></path><path fill="none" class="highcharts-tick" stroke="#ccd6eb" stroke-width="1" d="M 94.5 309 L 94.5 319" opacity="1"></path><path fill="none" class="highcharts-axis-line" stroke="#ccd6eb" stroke-width="1" d="M 95 309.5 L 590 309.5"></path></g><g class="highcharts-axis highcharts-yaxis "><text x="25.703125" text-anchor="middle" transform="translate(0,0) rotate(270 25.703125 179)" class="highcharts-axis-title" style="color:#666666;fill:#666666;" y="179"><tspan>用電量</tspan></text><path fill="none" class="highcharts-axis-line" d="M 95 49 L 95 309"></path></g><g class="highcharts-series-group"><g class="highcharts-series highcharts-series-0 highcharts-spline-series highcharts-color-0 " transform="translate(95,49) scale(1 1)" clip-path="url(#highcharts-1wg03em-28)"><path fill="none" d="M 10.760869565217 195.35152 C 10.760869565217 195.35152 23.673913043478002 202.214688 32.282608695652 206.72288 C 40.891304347826 211.23107199999998 45.195652173913004 214.879392 53.804347826087 217.89247999999998 C 62.41304347826101 220.90556799999996 66.71739130434801 219.92463999999998 75.326086956522 221.78832 C 83.934782608696 223.65200000000002 88.239130434783 227.21088 96.847826086957 227.21088 C 105.4565217391302 227.21088 109.76086956521681 227.21088 118.36956521739 226.10224 C 126.978260869566 224.9936 131.282608695654 226.10224 139.89130434783 216.2472 C 148.500000000002 206.39216 152.804347826088 163.76172799999557 161.41304347826 144.66816 C 170.021739130436 125.57459199999555 174.32608695652397 131.15648000000246 182.9347826087 120.77936000000003 C 191.543478260872 110.40224000000245 195.847826086958 102.39590399999778 204.45652173913 92.78255999999999 C 213.065217391306 83.16921599999776 217.36956521739398 77.73667200000115 225.97826086957 72.71264 C 234.58695652174202 67.68860800000115 238.891304347828 67.66239999999999 247.5 67.66239999999999 C 256.108695652172 67.66239999999999 260.413043478258 67.96608 269.02173913043 67.96608 C 277.63043478260596 67.96608 281.93478260869404 57.66924800000179 290.54347826087 50.00320000000002 C 299.152173913042 42.337152000001794 303.45652173912805 29.63584 312.0652173913 29.63584 C 320.67391304347603 29.63584 324.978260869564 29.845087999999542 333.58695652174 31.88640000000001 C 342.195652173912 33.92771199999954 346.499999999998 31.88640000000001 355.10869565217 39.8424 C 363.71739130434605 47.79839999999999 368.021739130434 64.78367999999732 376.63043478261 76.38592 C 385.239130434782 87.98815999999732 389.543478260868 92.23302400000136 398.15217391304 97.85360000000003 C 406.760869565216 103.47417600000136 411.06521739130403 104.02080000000001 419.67391304348 104.4888 C 428.282608695652 104.95679999999999 432.586956521738 104.4888 441.19565217391 104.95679999999999 C 449.804347826086 105.42479999999998 454.108695652174 138.018399999997 462.71739130435 150.91232 C 471.326086956522 163.80623999999702 484.23913043478 169.4264 484.23913043478 169.4264" class="highcharts-graph" stroke="#7cb5ec" stroke-width="2" stroke-linejoin="round" stroke-linecap="round"></path></g><g class="highcharts-markers highcharts-series-0 highcharts-spline-series highcharts-color-0 " transform="translate(95,49) scale(1 1)" clip-path="none"><path fill="#7cb5ec" d="M 14 195 A 4 4 0 1 1 13.999998000000167 194.99600000066667 Z" stroke="#666666" stroke-width="1" class="highcharts-point highcharts-color-0"></path><path fill="#7cb5ec" d="M 36 207 A 4 4 0 1 1 35.99999800000017 206.99600000066667 Z" stroke="#666666" stroke-width="1" class="highcharts-point highcharts-color-0"></path><path fill="#7cb5ec" d="M 57 218 A 4 4 0 1 1 56.99999800000017 217.99600000066667 Z" stroke="#666666" stroke-width="1" class="highcharts-point highcharts-color-0"></path><path fill="#7cb5ec" d="M 79 222 A 4 4 0 1 1 78.99999800000016 221.99600000066667 Z" stroke="#666666" stroke-width="1" class="highcharts-point highcharts-color-0"></path><path fill="#7cb5ec" d="M 100 227 A 4 4 0 1 1 99.99999800000016 226.99600000066667 Z" stroke="#666666" stroke-width="1" class="highcharts-point highcharts-color-0"></path><path fill="#7cb5ec" d="M 122 226 A 4 4 0 1 1 121.99999800000016 225.99600000066667 Z" stroke="#666666" stroke-width="1" class="highcharts-point highcharts-color-0"></path><path fill="#7cb5ec" d="M 143 216 A 4 4 0 1 1 142.99999800000018 215.99600000066667 Z" stroke="#666666" stroke-width="1" class="highcharts-point highcharts-color-0"></path><path fill="#7cb5ec" d="M 165 145 A 4 4 0 1 1 164.99999800000018 144.99600000066667 Z" stroke="#666666" stroke-width="1" class="highcharts-point highcharts-color-0"></path><path fill="#7cb5ec" d="M 186 121 A 4 4 0 1 1 185.99999800000018 120.99600000066667 Z" stroke="#666666" stroke-width="1" class="highcharts-point highcharts-color-0"></path><path fill="#7cb5ec" d="M 208 93 A 4 4 0 1 1 207.99999800000018 92.99600000066667 Z" stroke="#666666" stroke-width="1" class="highcharts-point highcharts-color-0"></path><path fill="#7cb5ec" d="M 229 73 A 4 4 0 1 1 228.99999800000018 72.99600000066667 Z" stroke="#666666" stroke-width="1" class="highcharts-point highcharts-color-0"></path><path fill="#7cb5ec" d="M 251 68 A 4 4 0 1 1 250.99999800000018 67.99600000066667 Z" stroke="#666666" stroke-width="1" class="highcharts-point highcharts-color-0"></path><path fill="#7cb5ec" d="M 273 68 A 4 4 0 1 1 272.9999980000002 67.99600000066667 Z" stroke="#666666" stroke-width="1" class="highcharts-point highcharts-color-0"></path><path fill="#7cb5ec" d="M 294 50 A 4 4 0 1 1 293.9999980000002 49.99600000066666 Z" stroke="#666666" stroke-width="1" class="highcharts-point highcharts-color-0"></path><path fill="#7cb5ec" d="M 316 30 A 4 4 0 1 1 315.9999980000002 29.996000000666665 Z" stroke="#666666" stroke-width="1" class="highcharts-point highcharts-color-0"></path><path fill="#7cb5ec" d="M 337 32 A 4 4 0 1 1 336.9999980000002 31.996000000666665 Z" stroke="#666666" stroke-width="1" class="highcharts-point highcharts-color-0"></path><path fill="#7cb5ec" d="M 359 40 A 4 4 0 1 1 358.9999980000002 39.99600000066666 Z" stroke="#666666" stroke-width="1" class="highcharts-point highcharts-color-0"></path><path fill="#7cb5ec" d="M 380 76 A 4 4 0 1 1 379.9999980000002 75.99600000066667 Z" stroke="#666666" stroke-width="1" class="highcharts-point highcharts-color-0"></path><path fill="#7cb5ec" d="M 402 98 A 4 4 0 1 1 401.9999980000002 97.99600000066667 Z" stroke="#666666" stroke-width="1" class="highcharts-point highcharts-color-0"></path><path fill="#7cb5ec" d="M 423 104 A 4 4 0 1 1 422.9999980000002 103.99600000066667 Z" stroke="#666666" stroke-width="1" class="highcharts-point highcharts-color-0"></path><path fill="#7cb5ec" d="M 445 105 A 4 4 0 1 1 444.9999980000002 104.99600000066667 Z" stroke="#666666" stroke-width="1" class="highcharts-point highcharts-color-0"></path><path fill="#7cb5ec" d="M 466 151 A 4 4 0 1 1 465.9999980000002 150.99600000066667 Z" stroke="#666666" stroke-width="1" class="highcharts-point highcharts-color-0"></path><path fill="#7cb5ec" d="M 488 169 A 4 4 0 1 1 487.9999980000002 168.99600000066667 Z" stroke="#666666" stroke-width="1" class="highcharts-point highcharts-color-0"></path></g></g><text x="300" text-anchor="middle" class="highcharts-title" style="color:#333333;font-size:18px;fill:#333333;" y="24"><tspan style="font-family:Microsoft JhengHei;">本日用電情形</tspan></text><text x="300" text-anchor="middle" class="highcharts-subtitle" style="color:#666666;fill:#666666;" y="48"></text><g class="highcharts-legend" transform="translate(256,356)"><rect fill="none" class="highcharts-legend-box" rx="0" ry="0" x="0" y="0" width="87" height="29" visibility="visible"></rect><g><g><g class="highcharts-legend-item highcharts-spline-series highcharts-color-0 highcharts-series-0" transform="translate(8,3)"><path fill="none" d="M 0 11 L 16 11" class="highcharts-graph" stroke="#7cb5ec" stroke-width="2"></path><path fill="#7cb5ec" d="M 12 11 A 4 4 0 1 1 11.999998000000167 10.996000000666664 Z" class="highcharts-point" stroke="#666666" stroke-width="1"></path><text x="21" style="color:#333333;font-size:12px;font-weight:bold;cursor:pointer;fill:#333333;" text-anchor="start" y="15"><tspan>本日用電</tspan></text></g></g></g></g><g class="highcharts-axis-labels highcharts-xaxis-labels "><text x="108.35359442956329" style="color:#666666;cursor:default;font-size:11px;fill:#666666;" text-anchor="end" transform="translate(0,0) rotate(-45 108.35359442956329 325)" y="325" opacity="1"><tspan style="font-family:Microsoft JhengHei; fill:black">0點</tspan></text><text x="129.8753335600033" style="color:#666666;cursor:default;font-size:11px;fill:#666666;" text-anchor="end" transform="translate(0,0) rotate(-45 129.8753335600033 325)" y="325" opacity="1"><tspan style="font-family:Microsoft JhengHei; fill:black">1點</tspan></text><text x="151.39707269043328" style="color:#666666;cursor:default;font-size:11px;fill:#666666;" text-anchor="end" transform="translate(0,0) rotate(-45 151.39707269043328 325)" y="325" opacity="1"><tspan style="font-family:Microsoft JhengHei; fill:black">2點</tspan></text><text x="172.91881182087332" style="color:#666666;cursor:default;font-size:11px;fill:#666666;" text-anchor="end" transform="translate(0,0) rotate(-45 172.91881182087332 325)" y="325" opacity="1"><tspan style="font-family:Microsoft JhengHei; fill:black">3點</tspan></text><text x="194.4405509513033" style="color:#666666;cursor:default;font-size:11px;fill:#666666;" text-anchor="end" transform="translate(0,0) rotate(-45 194.4405509513033 325)" y="325" opacity="1"><tspan style="font-family:Microsoft JhengHei; fill:black">4點</tspan></text><text x="215.96229008174328" style="color:#666666;cursor:default;font-size:11px;fill:#666666;" text-anchor="end" transform="translate(0,0) rotate(-45 215.96229008174328 325)" y="325" opacity="1"><tspan style="font-family:Microsoft JhengHei; fill:black">5點</tspan></text><text x="237.4840292121733" style="color:#666666;cursor:default;font-size:11px;fill:#666666;" text-anchor="end" transform="translate(0,0) rotate(-45 237.4840292121733 325)" y="325" opacity="1"><tspan style="font-family:Microsoft JhengHei; fill:black">6點</tspan></text><text x="259.0057683426133" style="color:#666666;cursor:default;font-size:11px;fill:#666666;" text-anchor="end" transform="translate(0,0) rotate(-45 259.0057683426133 325)" y="325" opacity="1"><tspan style="font-family:Microsoft JhengHei; fill:black">7點</tspan></text><text x="280.5275074730433" style="color:#666666;cursor:default;font-size:11px;fill:#666666;" text-anchor="end" transform="translate(0,0) rotate(-45 280.5275074730433 325)" y="325" opacity="1"><tspan style="font-family:Microsoft JhengHei; fill:black">8點</tspan></text><text x="302.04924660348325" style="color:#666666;cursor:default;font-size:11px;fill:#666666;" text-anchor="end" transform="translate(0,0) rotate(-45 302.04924660348325 325)" y="325" opacity="1"><tspan style="font-family:Microsoft JhengHei; fill:black">9點</tspan></text><text x="323.5709857339133" style="color:#666666;cursor:default;font-size:11px;fill:#666666;" text-anchor="end" transform="translate(0,0) rotate(-45 323.5709857339133 325)" y="325" opacity="1"><tspan style="font-family:Microsoft JhengHei; fill:black">10點</tspan></text><text x="345.0927248643533" style="color:#666666;cursor:default;font-size:11px;fill:#666666;" text-anchor="end" transform="translate(0,0) rotate(-45 345.0927248643533 325)" y="325" opacity="1"><tspan style="font-family:Microsoft JhengHei; fill:black">11點</tspan></text><text x="366.6144639947833" style="color:#666666;cursor:default;font-size:11px;fill:#666666;" text-anchor="end" transform="translate(0,0) rotate(-45 366.6144639947833 325)" y="325" opacity="1"><tspan style="font-family:Microsoft JhengHei; fill:black">12點</tspan></text><text x="388.1362031252233" style="color:#666666;cursor:default;font-size:11px;fill:#666666;" text-anchor="end" transform="translate(0,0) rotate(-45 388.1362031252233 325)" y="325" opacity="1"><tspan style="font-family:Microsoft JhengHei; fill:black">13點</tspan></text><text x="409.65794225565327" style="color:#666666;cursor:default;font-size:11px;fill:#666666;" text-anchor="end" transform="translate(0,0) rotate(-45 409.65794225565327 325)" y="325" opacity="1"><tspan style="font-family:Microsoft JhengHei; fill:black">14點</tspan></text><text x="431.1796813860933" style="color:#666666;cursor:default;font-size:11px;fill:#666666;" text-anchor="end" transform="translate(0,0) rotate(-45 431.1796813860933 325)" y="325" opacity="1"><tspan style="font-family:Microsoft JhengHei; fill:black">15點</tspan></text><text x="452.7014205165233" style="color:#666666;cursor:default;font-size:11px;fill:#666666;" text-anchor="end" transform="translate(0,0) rotate(-45 452.7014205165233 325)" y="325" opacity="1"><tspan style="font-family:Microsoft JhengHei; fill:black">16點</tspan></text><text x="474.22315964696327" style="color:#666666;cursor:default;font-size:11px;fill:#666666;" text-anchor="end" transform="translate(0,0) rotate(-45 474.22315964696327 325)" y="325" opacity="1"><tspan style="font-family:Microsoft JhengHei; fill:black">17點</tspan></text><text x="495.7448987773933" style="color:#666666;cursor:default;font-size:11px;fill:#666666;" text-anchor="end" transform="translate(0,0) rotate(-45 495.7448987773933 325)" y="325" opacity="1"><tspan style="font-family:Microsoft JhengHei; fill:black">18點</tspan></text><text x="517.2666379078332" style="color:#666666;cursor:default;font-size:11px;fill:#666666;" text-anchor="end" transform="translate(0,0) rotate(-45 517.2666379078332 325)" y="325" opacity="1"><tspan style="font-family:Microsoft JhengHei; fill:black">19點</tspan></text><text x="538.7883770382633" style="color:#666666;cursor:default;font-size:11px;fill:#666666;" text-anchor="end" transform="translate(0,0) rotate(-45 538.7883770382633 325)" y="325" opacity="1"><tspan style="font-family:Microsoft JhengHei; fill:black">20點</tspan></text><text x="560.3101161687033" style="color:#666666;cursor:default;font-size:11px;fill:#666666;" text-anchor="end" transform="translate(0,0) rotate(-45 560.3101161687033 325)" y="325" opacity="1"><tspan style="font-family:Microsoft JhengHei; fill:black">21點</tspan></text><text x="581.8318552991333" style="color:#666666;cursor:default;font-size:11px;fill:#666666;" text-anchor="end" transform="translate(0,0) rotate(-45 581.8318552991333 325)" y="325" opacity="1"><tspan style="font-family:Microsoft JhengHei; fill:black">22點</tspan></text></g><g class="highcharts-axis-labels highcharts-yaxis-labels "><text x="80" style="color:#666666;cursor:default;font-size:11px;fill:#666666;" text-anchor="end" transform="translate(0,0)" y="313" opacity="1"><tspan>500 度</tspan></text><text x="80" style="color:#666666;cursor:default;font-size:11px;fill:#666666;" text-anchor="end" transform="translate(0,0)" y="261" opacity="1"><tspan>750 度</tspan></text><text x="80" style="color:#666666;cursor:default;font-size:11px;fill:#666666;" text-anchor="end" transform="translate(0,0)" y="209" opacity="1"><tspan>1000 度</tspan></text><text x="80" style="color:#666666;cursor:default;font-size:11px;fill:#666666;" text-anchor="end" transform="translate(0,0)" y="157" opacity="1"><tspan>1250 度</tspan></text><text x="80" style="color:#666666;cursor:default;font-size:11px;fill:#666666;" text-anchor="end" transform="translate(0,0)" y="105" opacity="1"><tspan>1500 度</tspan></text><text x="80" style="color:#666666;cursor:default;font-size:11px;fill:#666666;" text-anchor="end" transform="translate(0,0)" y="53" opacity="1"><tspan>1750 度</tspan></text></g><text x="590" class="highcharts-credits" text-anchor="end" style="cursor:pointer;color:#999999;font-size:9px;fill:#999999;" y="395">Highcharts.com</text></svg>